<?xml version="1.0" encoding="UTF-8"?>
<svg xmlns="http://www.w3.org/2000/svg" xmlns:xlink="http://www.w3.org/1999/xlink" width="225px" height="150px" viewBox="0 0 225 150" version="1.1">
<g id="surface1">
<path style=" stroke:none;fill-rule:evenodd;fill:rgb(84.313725%,13.72549%,1.960784%);fill-opacity:1;" d="M 203.546875 106.632812 C 203.894531 106.632812 204.214844 106.847656 204.347656 107.171875 L 225.398438 149.347656 C 225.421875 149.429688 225.449219 149.511719 225.421875 149.617188 C 225.398438 149.863281 225.183594 150.023438 224.941406 149.996094 L 217.417969 149.996094 C 217.074219 149.96875 216.753906 149.78125 216.566406 149.457031 L 210.320312 136.824219 L 189.113281 136.824219 L 182.789062 149.457031 C 182.601562 149.78125 182.28125 149.96875 181.90625 149.996094 L 174.648438 149.996094 C 174.570312 149.996094 174.464844 149.996094 174.382812 149.941406 C 174.144531 149.835938 174.0625 149.535156 174.195312 149.320312 L 195.808594 107.171875 C 195.996094 106.847656 196.316406 106.632812 196.6875 106.632812 Z M 199.621094 114.742188 L 192.28125 129.902344 L 206.9375 129.902344 Z M 216.367188 54.203125 C 216.65625 54.011719 216.976562 54.121094 216.976562 54.527344 L 216.976562 61.527344 C 216.976562 61.90625 216.765625 62.226562 216.472656 62.445312 L 193.785156 75.660156 L 217.371094 89.605469 C 217.71875 89.792969 217.902344 90.144531 217.875 90.496094 L 217.875 97.441406 C 217.875 97.550781 217.847656 97.632812 217.796875 97.714844 C 217.664062 97.902344 217.398438 97.929688 217.214844 97.792969 L 187.695312 79.929688 L 187.695312 97.0625 L 187.691406 97.136719 C 187.65625 97.429688 187.40625 97.660156 187.113281 97.660156 L 181.078125 97.660156 C 180.761719 97.660156 180.496094 97.386719 180.496094 97.0625 L 180.496094 54.957031 C 180.496094 54.636719 180.761719 54.363281 181.078125 54.363281 L 187.113281 54.363281 L 187.1875 54.371094 C 187.472656 54.410156 187.695312 54.6875 187.695312 54.984375 L 187.695312 71.335938 Z M 11.703125 36.101562 C 12.804688 36.101562 13.640625 36.558594 14.097656 37.320312 C 14.480469 38.007812 14.632812 38.730469 14.632812 39.953125 C 14.632812 41.171875 14.480469 41.898438 14.097656 42.585938 C 13.640625 43.347656 12.765625 43.804688 11.703125 43.804688 C 10.523438 43.804688 10.332031 43.347656 9.988281 43.347656 C 9.761719 43.347656 9.683594 43.5 9.683594 43.804688 L 9.683594 46.324219 C 9.683594 46.476562 9.53125 46.628906 9.382812 46.628906 L 9.113281 46.628906 C 8.980469 46.59375 8.847656 46.503906 8.816406 46.351562 L 8.808594 46.285156 L 8.808594 36.558594 C 8.808594 36.421875 8.929688 36.285156 9.0625 36.257812 L 9.113281 36.253906 L 9.34375 36.253906 C 9.457031 36.253906 9.53125 36.292969 9.570312 36.40625 C 9.683594 36.59375 9.800781 36.671875 9.953125 36.671875 C 10.332031 36.671875 10.484375 36.101562 11.703125 36.101562 Z M 19.539062 36.101562 C 20.644531 36.101562 21.519531 36.558594 21.9375 37.320312 C 22.316406 38.007812 22.46875 38.730469 22.46875 39.953125 C 22.46875 41.171875 22.316406 41.898438 21.9375 42.585938 C 21.480469 43.347656 20.605469 43.804688 19.539062 43.804688 C 18.359375 43.804688 18.171875 43.347656 17.828125 43.347656 C 17.597656 43.347656 17.523438 43.5 17.523438 43.804688 L 17.523438 46.324219 C 17.523438 46.476562 17.371094 46.628906 17.21875 46.628906 L 16.914062 46.628906 C 16.761719 46.589844 16.648438 46.476562 16.648438 46.285156 L 16.648438 36.558594 C 16.648438 36.40625 16.800781 36.253906 16.953125 36.253906 L 17.179688 36.253906 C 17.292969 36.253906 17.371094 36.292969 17.410156 36.40625 C 17.523438 36.59375 17.636719 36.671875 17.789062 36.671875 C 18.171875 36.671875 18.320312 36.101562 19.539062 36.101562 Z M 71.589844 36.136719 C 73.492188 36.136719 74.671875 37.359375 74.671875 39.378906 L 74.671875 40.027344 C 74.671875 40.164062 74.550781 40.300781 74.417969 40.328125 L 74.367188 40.335938 L 69.574219 40.335938 C 69.507812 40.335938 69.445312 40.359375 69.425781 40.4375 L 69.421875 40.488281 C 69.421875 42.050781 70.21875 42.964844 71.628906 42.964844 C 72.617188 42.964844 73.378906 42.585938 73.683594 41.59375 C 73.71875 41.441406 73.871094 41.328125 74.023438 41.363281 L 74.328125 41.363281 C 74.441406 41.363281 74.59375 41.441406 74.59375 41.554688 L 74.59375 41.632812 C 74.40625 42.929688 73.1875 43.84375 71.628906 43.84375 C 70.449219 43.804688 69.574219 43.425781 69.078125 42.699219 C 68.585938 41.976562 68.433594 41.289062 68.433594 39.992188 C 68.355469 39.039062 68.621094 38.121094 69.15625 37.320312 C 69.726562 36.519531 70.636719 36.101562 71.589844 36.136719 Z M 94.914062 36.136719 C 96.816406 36.136719 97.996094 37.359375 97.996094 39.378906 L 97.996094 40.027344 C 97.996094 40.164062 97.875 40.300781 97.742188 40.328125 L 97.691406 40.335938 L 92.898438 40.335938 C 92.832031 40.335938 92.769531 40.359375 92.75 40.4375 L 92.746094 40.488281 C 92.746094 42.050781 93.542969 42.964844 94.953125 42.964844 C 95.941406 42.964844 96.699219 42.585938 97.003906 41.59375 C 97.042969 41.441406 97.195312 41.328125 97.347656 41.363281 L 97.652344 41.363281 C 97.765625 41.363281 97.917969 41.441406 97.917969 41.554688 L 97.917969 41.632812 C 97.726562 42.929688 96.511719 43.84375 94.953125 43.84375 C 93.734375 43.804688 92.859375 43.425781 92.402344 42.699219 C 91.90625 41.976562 91.753906 41.289062 91.753906 39.992188 C 91.679688 39.039062 91.945312 38.121094 92.476562 37.320312 C 93.050781 36.519531 93.960938 36.101562 94.914062 36.136719 Z M 89.472656 36.75 C 89.96875 37.207031 90.269531 37.894531 90.269531 38.578125 C 90.269531 38.730469 90.195312 38.847656 90.042969 38.882812 L 89.625 38.882812 C 89.472656 38.882812 89.320312 38.808594 89.320312 38.65625 C 89.320312 38.160156 89.128906 37.703125 88.75 37.359375 C 88.332031 37.089844 87.875 36.9375 87.378906 36.976562 C 86.582031 36.9375 85.820312 37.398438 85.476562 38.121094 C 85.097656 39.304688 85.097656 40.601562 85.476562 41.785156 C 85.820312 42.507812 86.542969 42.964844 87.378906 42.929688 C 87.949219 42.964844 88.484375 42.777344 88.863281 42.394531 C 89.128906 42.089844 89.28125 41.667969 89.28125 41.25 C 89.28125 41.058594 89.433594 40.980469 89.585938 40.980469 L 89.929688 40.980469 C 90.082031 40.980469 90.234375 41.097656 90.234375 41.289062 C 90.234375 41.898438 90.003906 42.507812 89.585938 42.964844 C 88.253906 44.1875 86.199219 44.074219 84.980469 42.738281 C 84.90625 42.621094 84.867188 42.546875 84.792969 42.472656 C 84.296875 41.746094 84.257812 41.019531 84.257812 39.953125 C 84.257812 38.882812 84.296875 38.160156 84.792969 37.433594 C 85.363281 36.597656 86.351562 36.0625 87.378906 36.101562 C 88.140625 36.0625 88.863281 36.289062 89.472656 36.75 Z M 62.839844 36.75 C 63.332031 37.207031 63.636719 37.894531 63.636719 38.578125 C 63.636719 38.730469 63.5625 38.847656 63.410156 38.882812 L 62.992188 38.882812 C 62.839844 38.882812 62.6875 38.808594 62.6875 38.65625 C 62.6875 38.160156 62.496094 37.703125 62.117188 37.359375 C 61.695312 37.089844 61.238281 36.9375 60.746094 36.976562 C 59.945312 36.9375 59.1875 37.398438 58.84375 38.121094 C 58.460938 39.304688 58.460938 40.601562 58.84375 41.785156 C 59.1875 42.507812 59.945312 42.964844 60.746094 42.929688 C 61.316406 42.964844 61.847656 42.777344 62.265625 42.394531 C 62.535156 42.089844 62.6875 41.667969 62.6875 41.25 C 62.6875 41.058594 62.839844 40.980469 62.992188 40.980469 L 63.332031 40.980469 C 63.484375 40.980469 63.636719 41.097656 63.636719 41.289062 C 63.636719 41.898438 63.410156 42.507812 62.992188 42.964844 C 61.660156 44.1875 59.605469 44.074219 58.386719 42.738281 C 58.273438 42.621094 58.195312 42.546875 58.160156 42.472656 C 57.695312 41.792969 57.632812 41.117188 57.628906 40.160156 L 57.625 39.953125 C 57.625 38.882812 57.664062 38.160156 58.160156 37.433594 C 58.730469 36.597656 59.71875 36.0625 60.746094 36.101562 C 61.507812 36.0625 62.230469 36.289062 62.839844 36.75 Z M 44.078125 33.125 C 44.214844 33.125 44.351562 33.214844 44.378906 33.371094 L 44.386719 33.429688 L 44.386719 43.308594 C 44.386719 43.445312 44.265625 43.582031 44.132812 43.609375 L 44.078125 43.613281 L 43.851562 43.613281 C 43.738281 43.613281 43.664062 43.578125 43.625 43.5 C 43.511719 43.308594 43.394531 43.234375 43.242188 43.234375 C 42.863281 43.234375 42.710938 43.804688 41.492188 43.804688 C 40.390625 43.804688 39.515625 43.347656 39.058594 42.585938 C 38.675781 41.9375 38.527344 41.210938 38.527344 39.953125 C 38.527344 38.695312 38.675781 38.007812 39.058594 37.320312 C 39.515625 36.558594 40.390625 36.101562 41.457031 36.101562 C 42.636719 36.101562 42.824219 36.558594 43.167969 36.558594 C 43.394531 36.558594 43.472656 36.40625 43.472656 36.101562 L 43.472656 33.429688 C 43.472656 33.292969 43.59375 33.160156 43.726562 33.128906 L 43.777344 33.125 L 44.082031 33.125 Z M 33.769531 36.136719 C 35.671875 36.136719 36.851562 37.359375 36.851562 39.378906 L 36.851562 40.027344 C 36.851562 40.164062 36.730469 40.300781 36.597656 40.328125 L 36.546875 40.335938 L 31.753906 40.335938 C 31.691406 40.335938 31.632812 40.359375 31.609375 40.40625 L 31.601562 40.449219 C 31.601562 42.011719 32.398438 42.929688 33.808594 42.929688 C 34.796875 42.929688 35.558594 42.546875 35.863281 41.554688 C 35.902344 41.402344 36.054688 41.289062 36.203125 41.328125 L 36.507812 41.328125 C 36.621094 41.328125 36.773438 41.402344 36.773438 41.515625 L 36.773438 41.59375 C 36.585938 42.890625 35.367188 43.804688 33.808594 43.804688 C 32.628906 43.804688 31.753906 43.425781 31.257812 42.699219 C 30.765625 41.976562 30.613281 41.289062 30.613281 39.992188 C 30.613281 38.808594 30.800781 38.082031 31.335938 37.320312 C 31.90625 36.519531 32.820312 36.101562 33.769531 36.136719 Z M 102.484375 36.101562 C 104.160156 36.101562 105.1875 36.9375 105.1875 38.3125 C 105.1875 38.449219 105.066406 38.582031 104.933594 38.613281 L 104.882812 38.617188 L 104.578125 38.617188 C 104.441406 38.617188 104.308594 38.527344 104.277344 38.371094 L 104.273438 38.3125 C 104.273438 37.359375 103.703125 36.902344 102.484375 36.902344 C 101.417969 36.902344 100.773438 37.359375 100.773438 38.046875 C 100.773438 38.730469 101.230469 39 102.902344 39.378906 C 104.804688 39.800781 105.339844 40.335938 105.339844 41.59375 C 105.339844 42.851562 104.195312 43.730469 102.410156 43.730469 C 100.542969 43.804688 99.441406 42.8125 99.441406 41.25 C 99.441406 41.097656 99.59375 40.945312 99.746094 40.945312 L 100.050781 40.945312 C 100.203125 40.945312 100.355469 41.058594 100.355469 41.25 C 100.355469 42.316406 101.113281 42.964844 102.410156 42.964844 C 103.703125 42.964844 104.425781 42.507812 104.425781 41.667969 C 104.425781 40.832031 103.929688 40.523438 102.21875 40.183594 C 100.507812 39.839844 99.820312 39.226562 99.820312 38.082031 C 99.820312 36.9375 100.960938 36.101562 102.484375 36.101562 Z M 52.832031 33.125 C 54.542969 33.125 55.835938 34.15625 55.835938 35.910156 L 55.835938 36.101562 C 55.835938 36.253906 55.6875 36.40625 55.535156 36.40625 L 55.152344 36.40625 C 55 36.40625 54.847656 36.292969 54.847656 36.101562 L 54.847656 35.910156 C 54.847656 34.6875 54.011719 34.039062 52.871094 34.039062 C 51.652344 34.039062 50.816406 34.574219 50.816406 35.679688 C 50.816406 36.902344 52.03125 37.398438 53.402344 37.777344 C 54.773438 38.160156 56.066406 38.960938 56.066406 40.753906 C 56.066406 42.660156 54.46875 43.691406 52.792969 43.691406 C 50.890625 43.804688 49.484375 42.738281 49.484375 40.675781 L 49.484375 40.449219 C 49.484375 40.3125 49.605469 40.175781 49.738281 40.148438 L 49.789062 40.144531 L 50.167969 40.144531 C 50.320312 40.144531 50.472656 40.257812 50.472656 40.449219 L 50.472656 40.675781 C 50.472656 42.050781 51.425781 42.8125 52.753906 42.8125 C 54.085938 42.8125 55 42.125 55 40.792969 C 55 39.457031 53.972656 39 52.488281 38.578125 C 51.15625 38.199219 49.75 37.472656 49.75 35.71875 C 49.75 33.964844 51.308594 33.125 52.832031 33.125 Z M 66.109375 36.253906 C 66.261719 36.253906 66.414062 36.328125 66.414062 36.480469 L 66.414062 43.308594 C 66.414062 43.460938 66.300781 43.578125 66.148438 43.613281 C 66.148438 43.652344 66.109375 43.652344 66.109375 43.652344 L 65.804688 43.652344 C 65.652344 43.691406 65.503906 43.578125 65.503906 43.425781 L 65.503906 36.558594 C 65.503906 36.40625 65.617188 36.292969 65.769531 36.253906 Z M 28.289062 36.253906 C 28.441406 36.253906 28.59375 36.328125 28.59375 36.480469 L 28.59375 43.308594 C 28.59375 43.460938 28.480469 43.578125 28.328125 43.613281 C 28.328125 43.652344 28.328125 43.652344 28.289062 43.652344 L 27.988281 43.652344 C 27.832031 43.652344 27.683594 43.578125 27.683594 43.425781 L 27.683594 36.558594 C 27.683594 36.40625 27.796875 36.292969 27.949219 36.253906 Z M 4.09375 33.316406 C 4.246094 33.316406 4.359375 33.390625 4.394531 33.542969 L 7.289062 43.269531 C 7.289062 43.308594 7.328125 43.386719 7.328125 43.425781 C 7.328125 43.539062 7.214844 43.652344 7.023438 43.652344 L 6.640625 43.652344 C 6.488281 43.652344 6.375 43.578125 6.335938 43.425781 L 5.578125 40.945312 C 5.539062 40.832031 5.425781 40.714844 5.273438 40.753906 L 2.113281 40.753906 C 1.960938 40.753906 1.847656 40.832031 1.808594 40.945312 L 1.046875 43.425781 C 1.011719 43.539062 0.894531 43.652344 0.742188 43.652344 L 0.363281 43.652344 C 0.210938 43.652344 0.0585938 43.539062 0.0585938 43.425781 C 0.0585938 43.386719 0.0585938 43.308594 0.0976562 43.269531 L 3.027344 33.546875 C 3.066406 33.429688 3.179688 33.316406 3.332031 33.316406 Z M 25.09375 33.164062 C 25.230469 33.164062 25.363281 33.253906 25.394531 33.40625 L 25.398438 33.46875 L 25.398438 43.347656 C 25.398438 43.484375 25.277344 43.617188 25.144531 43.648438 L 25.09375 43.652344 L 24.789062 43.652344 C 24.636719 43.652344 24.484375 43.5 24.484375 43.347656 L 24.484375 33.46875 C 24.484375 33.332031 24.605469 33.195312 24.738281 33.167969 L 24.789062 33.164062 Z M 79.769531 36.136719 C 81.253906 36.136719 82.359375 36.976562 82.359375 38.578125 L 82.359375 43.347656 C 82.359375 43.484375 82.238281 43.617188 82.105469 43.648438 L 82.050781 43.652344 L 81.75 43.652344 C 81.613281 43.652344 81.476562 43.5625 81.449219 43.40625 L 81.445312 43.347656 L 81.445312 38.695312 C 81.445312 37.511719 80.605469 36.976562 79.503906 36.976562 C 78.398438 36.976562 77.5625 37.511719 77.5625 38.695312 L 77.5625 43.347656 C 77.5625 43.484375 77.441406 43.617188 77.308594 43.648438 L 77.257812 43.652344 L 76.953125 43.652344 C 76.765625 43.652344 76.648438 43.5 76.648438 43.347656 L 76.648438 36.558594 C 76.648438 36.40625 76.800781 36.253906 76.953125 36.253906 L 77.183594 36.253906 C 77.257812 36.253906 77.335938 36.292969 77.410156 36.367188 C 77.488281 36.519531 77.5625 36.671875 77.714844 36.671875 C 78.132812 36.671875 78.285156 36.136719 79.769531 36.136719 Z M 216.503906 0 C 216.820312 0 217.082031 0.269531 217.082031 0.597656 L 217.082031 42.773438 C 217.082031 43.097656 216.820312 43.371094 216.503906 43.371094 L 210.503906 43.371094 C 210.210938 43.371094 209.964844 43.136719 209.929688 42.847656 L 209.925781 42.773438 L 209.925781 0.59375 C 209.925781 0.269531 210.1875 0 210.503906 0 Z M 187.359375 0 C 187.683594 0 187.949219 0.269531 187.949219 0.597656 L 187.949219 18.367188 L 206.179688 18.367188 C 206.5 18.367188 206.769531 18.636719 206.742188 18.988281 L 206.742188 24.460938 L 206.738281 24.535156 C 206.699219 24.828125 206.449219 25.058594 206.152344 25.058594 L 187.921875 25.058594 L 187.921875 42.773438 C 187.921875 43.097656 187.65625 43.371094 187.335938 43.371094 L 181.238281 43.371094 C 180.917969 43.371094 180.652344 43.097656 180.652344 42.773438 L 180.652344 25.003906 L 162.421875 25.003906 C 162.074219 25.03125 161.804688 24.734375 161.804688 24.40625 L 161.804688 18.960938 C 161.804688 18.636719 162.097656 18.367188 162.417969 18.367188 L 180.679688 18.367188 L 180.679688 0.597656 C 180.679688 0.269531 180.945312 0 181.265625 0 Z M 40.695312 37.128906 C 40.238281 37.320312 39.894531 37.664062 39.703125 38.121094 C 39.515625 38.695312 39.4375 39.34375 39.476562 39.953125 C 39.4375 40.5625 39.515625 41.171875 39.703125 41.785156 C 39.933594 42.507812 40.65625 43.003906 41.457031 42.929688 C 42.214844 43.003906 42.9375 42.507812 43.207031 41.785156 C 43.394531 41.210938 43.472656 40.5625 43.433594 39.953125 C 43.472656 39.34375 43.394531 38.695312 43.207031 38.121094 C 42.789062 37.167969 41.683594 36.710938 40.695312 37.128906 Z M 19.539062 36.976562 C 18.777344 36.902344 18.054688 37.398438 17.789062 38.121094 C 17.597656 38.695312 17.523438 39.34375 17.5625 39.953125 C 17.523438 40.5625 17.597656 41.171875 17.789062 41.785156 C 18.207031 42.738281 19.3125 43.195312 20.300781 42.777344 C 20.757812 42.585938 21.101562 42.242188 21.289062 41.785156 C 21.480469 41.210938 21.554688 40.5625 21.519531 39.953125 C 21.554688 39.34375 21.480469 38.695312 21.289062 38.121094 C 21.0625 37.398438 20.339844 36.902344 19.539062 36.976562 Z M 11.703125 36.976562 C 10.941406 36.902344 10.21875 37.398438 9.953125 38.121094 C 9.761719 38.695312 9.683594 39.34375 9.722656 39.953125 C 9.683594 40.5625 9.761719 41.171875 9.953125 41.785156 C 10.371094 42.738281 11.472656 43.195312 12.460938 42.777344 C 12.917969 42.585938 13.261719 42.242188 13.453125 41.785156 C 13.640625 41.210938 13.71875 40.5625 13.679688 39.953125 C 13.71875 39.34375 13.640625 38.695312 13.453125 38.121094 C 13.222656 37.398438 12.5 36.902344 11.703125 36.976562 Z M 3.636719 34.574219 L 3.597656 34.574219 C 3.558594 34.574219 3.558594 34.613281 3.523438 34.652344 L 2.113281 39.648438 C 2.074219 39.761719 2.152344 39.800781 2.226562 39.800781 L 5.003906 39.800781 C 5.082031 39.800781 5.15625 39.761719 5.121094 39.648438 L 3.710938 34.652344 C 3.710938 34.574219 3.675781 34.574219 3.636719 34.574219 Z M 71.550781 37.054688 C 70.183594 37.054688 69.382812 37.96875 69.382812 39.378906 C 69.382812 39.445312 69.4375 39.507812 69.496094 39.527344 L 69.535156 39.535156 L 73.53125 39.535156 L 73.53125 39.492188 C 73.59375 39.492188 73.652344 39.46875 73.675781 39.421875 L 73.683594 39.378906 C 73.683594 37.890625 72.921875 37.054688 71.550781 37.054688 Z M 94.875 37.054688 C 93.507812 37.054688 92.707031 37.96875 92.707031 39.378906 C 92.707031 39.445312 92.761719 39.507812 92.820312 39.527344 L 92.859375 39.535156 L 96.855469 39.535156 L 96.855469 39.492188 C 96.914062 39.492188 96.976562 39.46875 97 39.421875 L 97.007812 39.378906 C 97.007812 37.890625 96.246094 37.054688 94.875 37.054688 Z M 33.769531 37.015625 C 32.4375 37.015625 31.601562 37.929688 31.601562 39.34375 C 31.601562 39.40625 31.65625 39.46875 31.714844 39.488281 L 31.753906 39.496094 L 35.710938 39.496094 C 35.773438 39.496094 35.835938 39.46875 35.859375 39.394531 L 35.863281 39.34375 C 35.863281 37.855469 35.101562 37.015625 33.769531 37.015625 Z M 66.414062 33.164062 C 66.53125 33.164062 66.644531 33.277344 66.644531 33.390625 L 66.644531 34.269531 C 66.644531 34.367188 66.558594 34.464844 66.464844 34.492188 L 66.414062 34.5 L 65.539062 34.5 C 65.386719 34.535156 65.273438 34.421875 65.273438 34.269531 L 65.273438 33.390625 C 65.273438 33.277344 65.386719 33.164062 65.503906 33.164062 Z M 28.558594 33.164062 C 28.671875 33.164062 28.785156 33.277344 28.785156 33.390625 L 28.785156 34.269531 C 28.785156 34.367188 28.703125 34.464844 28.605469 34.492188 L 28.558594 34.5 L 27.683594 34.5 C 27.570312 34.5 27.453125 34.421875 27.453125 34.269531 L 27.453125 33.390625 C 27.453125 33.277344 27.570312 33.164062 27.683594 33.164062 Z M 56.980469 19.890625 C 57.132812 19.890625 57.207031 19.925781 57.285156 20.117188 L 59.644531 25.535156 C 59.683594 25.609375 59.683594 25.609375 59.71875 25.609375 C 59.757812 25.609375 59.757812 25.609375 59.796875 25.535156 L 61.851562 20.117188 C 61.925781 19.925781 62.003906 19.886719 62.152344 19.886719 L 62.574219 19.886719 C 62.703125 19.886719 62.804688 19.945312 62.855469 20.058594 L 62.878906 20.117188 C 62.878906 20.195312 62.839844 20.269531 62.800781 20.347656 L 58.957031 30.035156 C 58.921875 30.1875 58.804688 30.265625 58.65625 30.265625 L 58.3125 30.265625 C 58.121094 30.226562 58.046875 30.148438 58.046875 29.996094 C 58.046875 29.921875 58.046875 29.84375 58.082031 29.769531 L 59.148438 26.945312 C 59.1875 26.90625 59.1875 26.832031 59.1875 26.792969 C 59.1875 26.753906 59.148438 26.679688 59.148438 26.640625 L 56.332031 20.382812 C 56.296875 20.308594 56.257812 20.230469 56.257812 20.15625 C 56.257812 20.003906 56.371094 19.886719 56.523438 19.886719 L 56.980469 19.886719 Z M 1.59375 16.953125 C 1.722656 16.957031 1.851562 17.046875 1.878906 17.195312 L 1.886719 17.257812 L 1.886719 24.273438 C 1.921875 25.570312 3.027344 26.5625 4.28125 26.488281 C 5.5 26.449219 6.449219 25.457031 6.488281 24.273438 L 6.488281 17.257812 C 6.488281 17.121094 6.609375 16.984375 6.742188 16.957031 L 6.792969 16.953125 L 7.175781 16.953125 C 7.328125 16.953125 7.476562 17.066406 7.476562 17.257812 L 7.476562 24.273438 C 7.402344 26.105469 5.878906 27.515625 4.09375 27.480469 C 2.378906 27.402344 1.011719 25.992188 0.894531 24.273438 L 0.894531 17.257812 C 0.894531 17.121094 1.015625 16.984375 1.148438 16.957031 L 1.199219 16.953125 Z M 31.03125 19.773438 C 32.933594 19.773438 34.113281 20.996094 34.113281 23.015625 L 34.113281 23.664062 C 34.113281 23.816406 33.960938 23.96875 33.808594 23.96875 L 29.015625 23.96875 C 28.953125 23.96875 28.894531 23.996094 28.871094 24.042969 L 28.863281 24.085938 L 28.863281 24.121094 C 28.863281 25.6875 29.660156 26.601562 31.070312 26.601562 C 32.058594 26.601562 32.820312 26.222656 33.125 25.230469 C 33.160156 25.078125 33.3125 24.960938 33.464844 24.960938 L 33.769531 24.960938 C 33.886719 24.960938 34.035156 25.039062 34.035156 25.191406 L 34.035156 25.265625 C 33.847656 26.5625 32.628906 27.480469 31.070312 27.480469 C 29.890625 27.441406 29.015625 27.058594 28.519531 26.335938 C 28.023438 25.609375 27.871094 24.921875 27.871094 23.589844 C 27.871094 22.40625 28.0625 21.679688 28.597656 20.917969 C 29.167969 20.15625 30.078125 19.699219 31.03125 19.773438 Z M 72.730469 21.070312 C 73.148438 21.679688 73.261719 22.253906 73.261719 23.589844 C 73.261719 24.921875 73.148438 25.496094 72.730469 26.105469 C 71.703125 27.554688 69.726562 27.859375 68.28125 26.832031 C 67.976562 26.640625 67.746094 26.371094 67.558594 26.105469 C 67.175781 25.496094 67.023438 24.921875 67.023438 23.589844 C 67.023438 22.253906 67.136719 21.679688 67.558594 21.070312 C 68.128906 20.230469 69.117188 19.738281 70.144531 19.738281 C 71.171875 19.699219 72.160156 20.195312 72.730469 21.070312 Z M 43.320312 19.738281 C 44.992188 19.738281 46.019531 20.574219 46.019531 21.949219 C 46.019531 22.101562 45.871094 22.253906 45.71875 22.253906 L 45.414062 22.253906 C 45.261719 22.253906 45.109375 22.140625 45.109375 21.949219 C 45.109375 20.996094 44.539062 20.539062 43.320312 20.539062 C 42.253906 20.539062 41.609375 20.996094 41.609375 21.71875 C 41.609375 22.445312 42.0625 22.675781 43.738281 23.054688 C 45.640625 23.476562 46.171875 24.007812 46.171875 25.265625 C 46.171875 26.527344 45.03125 27.402344 43.242188 27.402344 C 41.457031 27.441406 40.3125 26.449219 40.3125 24.886719 C 40.3125 24.734375 40.464844 24.582031 40.617188 24.582031 L 40.921875 24.582031 C 41.058594 24.582031 41.191406 24.671875 41.222656 24.824219 L 41.226562 24.886719 C 41.226562 25.953125 41.988281 26.601562 43.28125 26.601562 C 44.574219 26.601562 45.296875 26.144531 45.296875 25.304688 C 45.296875 24.46875 44.804688 24.160156 43.089844 23.816406 C 41.378906 23.476562 40.65625 22.863281 40.65625 21.71875 C 40.65625 20.574219 41.796875 19.738281 43.320312 19.738281 Z M 78.515625 16.800781 L 78.589844 16.800781 C 78.742188 16.800781 78.894531 16.914062 78.894531 17.105469 L 78.894531 17.332031 C 78.894531 17.46875 78.773438 17.605469 78.640625 17.632812 L 78.589844 17.636719 L 78.515625 17.636719 C 77.449219 17.636719 76.839844 18.363281 76.839844 19.585938 L 76.839844 19.851562 C 76.839844 19.914062 76.894531 19.976562 76.957031 19.996094 L 76.992188 20.003906 L 78.742188 20.003906 C 78.878906 20.003906 79.011719 20.09375 79.042969 20.25 L 79.046875 20.308594 L 79.046875 20.574219 C 79.046875 20.726562 78.894531 20.878906 78.742188 20.878906 L 76.992188 20.878906 C 76.917969 20.878906 76.839844 20.917969 76.839844 20.996094 L 76.839844 27.023438 C 76.839844 27.175781 76.6875 27.328125 76.535156 27.328125 L 76.230469 27.328125 C 76.078125 27.289062 75.925781 27.175781 75.925781 26.984375 L 75.925781 20.996094 C 75.925781 20.933594 75.875 20.867188 75.8125 20.847656 L 75.773438 20.84375 L 74.441406 20.84375 C 74.308594 20.84375 74.171875 20.753906 74.144531 20.597656 L 74.136719 20.539062 L 74.136719 20.269531 C 74.136719 20.136719 74.257812 20 74.390625 19.96875 L 74.445312 19.964844 L 75.777344 19.964844 C 75.839844 19.964844 75.902344 19.9375 75.921875 19.863281 L 75.925781 19.8125 L 75.925781 19.546875 C 75.925781 17.867188 76.917969 16.800781 78.515625 16.800781 Z M 36.597656 19.890625 C 36.742188 19.894531 36.851562 19.972656 36.890625 20.195312 C 36.925781 20.421875 36.925781 20.726562 37.15625 20.726562 C 37.535156 20.726562 37.839844 19.925781 39.210938 19.925781 L 39.402344 19.925781 C 39.535156 19.925781 39.671875 20.019531 39.699219 20.171875 L 39.703125 20.234375 L 39.703125 20.539062 C 39.703125 20.671875 39.585938 20.808594 39.449219 20.835938 L 39.402344 20.84375 L 39.210938 20.84375 C 38.222656 20.84375 36.964844 21.375 36.964844 23.324219 L 36.964844 27.023438 C 36.964844 27.175781 36.8125 27.328125 36.660156 27.328125 L 36.355469 27.328125 C 36.242188 27.289062 36.089844 27.175781 36.089844 26.984375 L 36.089844 20.195312 C 36.089844 20.058594 36.210938 19.921875 36.34375 19.894531 L 36.394531 19.890625 Z M 12.957031 19.773438 C 14.441406 19.773438 15.542969 20.613281 15.542969 22.214844 L 15.542969 26.984375 C 15.542969 27.136719 15.390625 27.289062 15.238281 27.289062 L 14.933594 27.289062 C 14.800781 27.289062 14.664062 27.199219 14.636719 27.042969 L 14.632812 26.984375 L 14.632812 22.332031 C 14.632812 21.148438 13.792969 20.613281 12.691406 20.613281 C 11.589844 20.613281 10.75 21.148438 10.75 22.332031 L 10.75 26.984375 C 10.75 27.136719 10.597656 27.289062 10.445312 27.289062 L 10.140625 27.289062 C 9.988281 27.289062 9.875 27.175781 9.835938 26.984375 L 9.835938 20.195312 C 9.835938 20.058594 9.957031 19.921875 10.089844 19.894531 L 10.140625 19.890625 L 10.371094 19.890625 C 10.445312 19.890625 10.523438 19.925781 10.597656 20.003906 C 10.675781 20.15625 10.75 20.308594 10.902344 20.308594 C 11.320312 20.308594 11.472656 19.773438 12.957031 19.773438 Z M 48.644531 19.890625 C 48.796875 19.890625 48.949219 19.964844 48.949219 20.117188 L 48.949219 26.945312 C 48.949219 27.097656 48.835938 27.214844 48.683594 27.25 C 48.683594 27.28125 48.683594 27.285156 48.667969 27.289062 L 48.34375 27.289062 C 48.191406 27.289062 48.039062 27.214844 48.039062 27.058594 L 48.039062 20.195312 C 48.039062 20.042969 48.152344 19.925781 48.304688 19.890625 Z M 18.359375 19.890625 C 18.511719 19.890625 18.664062 19.964844 18.664062 20.117188 L 18.664062 26.945312 C 18.664062 27.097656 18.550781 27.214844 18.398438 27.25 C 18.398438 27.28125 18.375 27.285156 18.367188 27.289062 L 18.054688 27.289062 C 17.902344 27.289062 17.75 27.214844 17.75 27.058594 L 17.75 20.195312 C 17.75 20.042969 17.867188 19.925781 18.019531 19.890625 Z M 20.71875 19.890625 C 20.871094 19.890625 20.984375 19.964844 21.023438 20.117188 L 23.308594 26.070312 C 23.34375 26.144531 23.382812 26.183594 23.421875 26.183594 C 23.496094 26.183594 23.535156 26.144531 23.574219 26.070312 L 25.855469 20.117188 C 25.894531 19.964844 26.007812 19.890625 26.160156 19.890625 L 26.539062 19.890625 C 26.671875 19.890625 26.773438 19.945312 26.824219 20.058594 L 26.84375 20.117188 C 26.84375 20.195312 26.804688 20.269531 26.769531 20.347656 L 24.105469 27.023438 C 24.066406 27.136719 23.953125 27.25 23.800781 27.25 L 23.039062 27.25 C 22.964844 27.289062 22.851562 27.214844 22.8125 27.0625 L 20.148438 20.386719 C 20.109375 20.308594 20.074219 20.234375 20.074219 20.15625 C 20.074219 20.023438 20.160156 19.917969 20.28125 19.894531 L 20.339844 19.890625 Z M 52.71875 17.21875 C 52.871094 17.21875 53.023438 17.332031 53.023438 17.523438 L 53.023438 19.8125 C 53.023438 19.875 53.074219 19.941406 53.136719 19.960938 L 53.175781 19.964844 L 55.113281 19.964844 C 55.25 19.964844 55.386719 20.054688 55.414062 20.210938 L 55.417969 20.269531 L 55.417969 20.539062 C 55.417969 20.671875 55.300781 20.808594 55.164062 20.835938 L 55.113281 20.84375 L 53.175781 20.84375 C 53.113281 20.84375 53.054688 20.867188 53.03125 20.914062 L 53.023438 20.957031 L 53.023438 24.886719 C 53.023438 25.878906 53.402344 26.375 54.46875 26.375 L 55.230469 26.375 C 55.382812 26.375 55.535156 26.488281 55.535156 26.679688 L 55.535156 26.945312 C 55.535156 27.097656 55.382812 27.25 55.230469 27.25 L 54.46875 27.25 C 52.90625 27.289062 52.109375 26.640625 52.109375 24.925781 L 52.109375 20.996094 C 52.109375 20.933594 52.054688 20.867188 51.996094 20.847656 L 51.957031 20.84375 L 50.699219 20.84375 C 50.546875 20.84375 50.398438 20.726562 50.398438 20.539062 L 50.398438 20.269531 C 50.398438 20.136719 50.515625 20 50.648438 19.96875 L 50.703125 19.964844 L 51.957031 19.964844 C 52.019531 19.964844 52.082031 19.9375 52.101562 19.863281 L 52.109375 19.8125 L 52.109375 17.523438 C 52.109375 17.386719 52.230469 17.253906 52.363281 17.222656 L 52.414062 17.21875 Z M 70.105469 20.613281 C 69.308594 20.613281 68.585938 21.035156 68.203125 21.757812 C 67.976562 22.179688 67.9375 22.597656 67.9375 23.589844 C 67.9375 24.582031 68.011719 25 68.203125 25.421875 C 68.546875 26.144531 69.308594 26.566406 70.105469 26.566406 C 70.941406 26.601562 71.664062 26.144531 72.007812 25.421875 C 72.234375 25 72.273438 24.582031 72.273438 23.589844 C 72.273438 22.597656 72.199219 22.175781 72.007812 21.757812 C 71.664062 21.035156 70.90625 20.613281 70.105469 20.613281 Z M 31.03125 20.691406 C 29.699219 20.691406 28.863281 21.605469 28.863281 23.015625 C 28.863281 23.082031 28.914062 23.144531 28.976562 23.164062 L 29.011719 23.167969 L 32.972656 23.167969 L 32.972656 23.132812 C 33.03125 23.132812 33.09375 23.105469 33.113281 23.058594 L 33.121094 23.015625 C 33.121094 21.492188 32.363281 20.691406 31.03125 20.691406 Z M 18.625 16.800781 C 18.742188 16.800781 18.855469 16.914062 18.855469 17.027344 L 18.855469 17.90625 C 18.855469 18.003906 18.769531 18.101562 18.675781 18.128906 L 18.625 18.136719 L 17.75 18.136719 C 17.652344 18.167969 17.550781 18.082031 17.527344 17.960938 L 17.523438 17.90625 L 17.523438 17.027344 C 17.523438 16.914062 17.636719 16.800781 17.75 16.800781 Z M 48.914062 16.800781 C 49.027344 16.800781 49.140625 16.914062 49.140625 17.027344 L 49.140625 17.90625 C 49.140625 18.003906 49.058594 18.101562 48.960938 18.128906 L 48.914062 18.136719 L 48.039062 18.136719 C 47.9375 18.167969 47.839844 18.082031 47.816406 17.960938 L 47.808594 17.90625 L 47.808594 17.027344 C 47.808594 16.914062 47.921875 16.800781 48.039062 16.800781 Z M 138.59375 3.449219 C 140.609375 3.449219 141.710938 4.707031 141.710938 6.957031 L 141.710938 7.605469 C 141.710938 7.742188 141.59375 7.875 141.457031 7.90625 L 141.40625 7.910156 L 137.449219 7.910156 C 137.390625 7.910156 137.328125 7.933594 137.308594 7.984375 L 137.300781 8.027344 C 137.300781 9.015625 137.679688 9.4375 138.59375 9.4375 C 139.238281 9.4375 139.582031 9.207031 139.773438 8.710938 C 139.808594 8.558594 139.960938 8.445312 140.113281 8.445312 L 141.40625 8.445312 C 141.558594 8.445312 141.675781 8.523438 141.675781 8.675781 L 141.675781 8.789062 C 141.371094 10.238281 140.039062 11.191406 138.59375 11.117188 C 137.601562 11.152344 136.652344 10.695312 136.042969 9.933594 C 135.546875 9.285156 135.359375 8.558594 135.359375 7.261719 C 135.359375 5.964844 135.546875 5.242188 136.042969 4.59375 C 136.691406 3.828125 137.601562 3.410156 138.59375 3.449219 Z M 15.011719 4.285156 C 15.125 4.402344 15.238281 4.476562 15.316406 4.59375 C 15.8125 5.242188 16 5.964844 16 7.261719 C 16 8.558594 15.8125 9.285156 15.316406 9.933594 C 14.097656 11.34375 11.929688 11.496094 10.523438 10.238281 L 10.21875 9.933594 C 9.722656 9.285156 9.53125 8.558594 9.53125 7.261719 C 9.53125 5.964844 9.722656 5.242188 10.21875 4.59375 C 11.4375 3.179688 13.605469 3.027344 15.011719 4.285156 Z M 46.019531 4.097656 C 46.628906 4.667969 46.972656 5.46875 46.972656 6.308594 C 46.972656 6.460938 46.898438 6.574219 46.746094 6.613281 L 45.261719 6.613281 C 45.128906 6.613281 45.027344 6.558594 44.976562 6.445312 L 44.957031 6.386719 C 44.957031 6.078125 44.84375 5.8125 44.613281 5.585938 C 44.347656 5.394531 44.082031 5.316406 43.777344 5.355469 C 43.433594 5.316406 43.054688 5.429688 42.824219 5.699219 C 42.636719 5.964844 42.597656 6.347656 42.597656 7.261719 C 42.597656 8.175781 42.671875 8.597656 42.824219 8.828125 C 43.054688 9.09375 43.433594 9.246094 43.777344 9.171875 C 44.082031 9.207031 44.386719 9.132812 44.613281 8.980469 C 44.804688 8.824219 44.878906 8.636719 44.957031 8.101562 C 44.957031 7.949219 45.070312 7.910156 45.261719 7.910156 L 46.667969 7.910156 C 46.820312 7.910156 46.933594 8.027344 46.933594 8.175781 L 46.933594 8.214844 C 46.972656 8.980469 46.707031 9.703125 46.210938 10.238281 C 45.566406 10.847656 44.691406 11.152344 43.777344 11.078125 C 42.824219 11.152344 41.875 10.695312 41.265625 9.933594 C 40.769531 9.285156 40.582031 8.558594 40.582031 7.261719 C 40.582031 5.964844 40.769531 5.242188 41.265625 4.59375 C 41.875 3.828125 42.824219 3.410156 43.816406 3.449219 C 44.613281 3.410156 45.375 3.636719 46.019531 4.097656 Z M 71.816406 3.449219 C 73.835938 3.449219 74.9375 4.707031 74.9375 6.957031 L 74.9375 7.605469 C 74.9375 7.742188 74.816406 7.875 74.683594 7.90625 L 74.632812 7.910156 L 70.675781 7.910156 C 70.613281 7.910156 70.554688 7.933594 70.53125 7.984375 L 70.523438 8.027344 C 70.523438 9.015625 70.90625 9.4375 71.816406 9.4375 C 72.425781 9.4375 72.808594 9.207031 72.996094 8.710938 C 73.035156 8.558594 73.1875 8.445312 73.339844 8.445312 L 74.632812 8.445312 C 74.785156 8.445312 74.898438 8.523438 74.898438 8.636719 L 74.898438 8.75 C 74.59375 10.199219 73.261719 11.152344 71.816406 11.078125 C 70.828125 11.152344 69.878906 10.695312 69.269531 9.933594 C 68.773438 9.285156 68.585938 8.558594 68.585938 7.261719 C 68.585938 5.964844 68.773438 5.242188 69.269531 4.59375 C 69.878906 3.828125 70.828125 3.410156 71.816406 3.449219 Z M 108.609375 3.371094 C 110.398438 3.371094 111.539062 4.289062 111.539062 5.699219 C 111.539062 5.851562 111.425781 5.964844 111.273438 5.964844 L 109.980469 5.964844 C 109.828125 5.964844 109.714844 5.890625 109.675781 5.738281 L 109.675781 5.699219 C 109.675781 5.242188 109.296875 4.972656 108.648438 4.972656 C 108.078125 4.972656 107.734375 5.203125 107.734375 5.546875 C 107.734375 5.890625 108 6.082031 109.296875 6.386719 C 111.121094 6.804688 111.730469 7.378906 111.730469 8.710938 C 111.730469 10.199219 110.550781 11.078125 108.609375 11.078125 C 106.671875 11.078125 105.453125 10.125 105.453125 8.484375 C 105.453125 8.332031 105.566406 8.214844 105.757812 8.214844 L 107.089844 8.214844 C 107.242188 8.214844 107.355469 8.292969 107.390625 8.445312 L 107.390625 8.484375 C 107.390625 9.132812 107.773438 9.4375 108.609375 9.4375 C 109.371094 9.4375 109.75 9.207031 109.75 8.789062 C 109.75 8.367188 109.410156 8.214844 108.191406 7.949219 C 106.519531 7.605469 105.757812 6.804688 105.757812 5.507812 C 105.757812 4.210938 106.9375 3.371094 108.609375 3.371094 Z M 90.996094 3.371094 C 92.859375 3.371094 94.039062 4.324219 94.039062 6.042969 L 94.039062 10.621094 C 94.039062 10.773438 93.886719 10.925781 93.734375 10.925781 L 92.972656 10.925781 C 92.898438 10.925781 92.820312 10.886719 92.746094 10.808594 C 92.667969 10.695312 92.554688 10.503906 92.402344 10.503906 C 92.136719 10.503906 91.71875 11.078125 90.421875 11.078125 C 88.863281 11.078125 87.761719 10.199219 87.761719 8.636719 C 87.761719 7.492188 88.636719 6.347656 90.386719 6.347656 L 91.945312 6.347656 C 92.023438 6.347656 92.097656 6.308594 92.097656 6.234375 L 92.097656 5.964844 C 92.097656 5.355469 91.601562 5.050781 90.917969 5.050781 C 90.613281 5.050781 89.96875 5.125 89.851562 5.546875 C 89.78125 5.789062 89.714844 5.808594 89.503906 5.8125 L 88.332031 5.8125 C 88.195312 5.8125 88.0625 5.722656 88.03125 5.566406 L 88.027344 5.507812 C 88.027344 4.402344 89.128906 3.371094 90.996094 3.371094 Z M 36.203125 3.371094 C 37.992188 3.371094 39.097656 4.289062 39.097656 5.699219 C 39.097656 5.851562 38.980469 5.964844 38.792969 5.964844 L 37.535156 5.964844 C 37.347656 5.964844 37.230469 5.851562 37.230469 5.699219 C 37.230469 5.242188 36.851562 4.972656 36.203125 4.972656 C 35.671875 4.972656 35.292969 5.203125 35.292969 5.546875 C 35.292969 5.890625 35.558594 6.082031 36.851562 6.386719 C 38.675781 6.804688 39.285156 7.378906 39.285156 8.710938 C 39.285156 10.199219 38.105469 11.078125 36.167969 11.078125 C 34.226562 11.078125 33.046875 10.125 33.046875 8.484375 C 33.046875 8.332031 33.160156 8.214844 33.3125 8.214844 L 34.683594 8.214844 C 34.835938 8.214844 34.949219 8.292969 34.988281 8.445312 L 34.988281 8.484375 C 34.988281 9.132812 35.367188 9.4375 36.203125 9.4375 C 36.964844 9.4375 37.347656 9.207031 37.347656 8.789062 C 37.347656 8.367188 37.003906 8.214844 35.785156 7.949219 C 34.113281 7.605469 33.351562 6.804688 33.351562 5.507812 C 33.351562 4.210938 34.53125 3.371094 36.203125 3.371094 Z M 120.9375 3.523438 C 121.074219 3.523438 121.207031 3.613281 121.238281 3.769531 L 121.242188 3.828125 L 121.242188 8.175781 C 121.242188 8.828125 121.660156 9.207031 122.382812 9.207031 C 123.105469 9.207031 123.523438 8.828125 123.523438 8.253906 L 123.523438 3.828125 C 123.523438 3.691406 123.644531 3.558594 123.777344 3.527344 L 123.832031 3.523438 L 125.199219 3.523438 C 125.351562 3.5625 125.503906 3.675781 125.503906 3.828125 L 125.503906 10.617188 C 125.503906 10.769531 125.351562 10.925781 125.199219 10.925781 L 124.4375 10.925781 C 124.324219 10.925781 124.25 10.886719 124.171875 10.808594 C 124.058594 10.65625 123.980469 10.429688 123.753906 10.429688 C 123.375 10.429688 123.144531 11.074219 121.925781 11.074219 C 120.289062 11.074219 119.261719 10.046875 119.261719 8.367188 L 119.261719 3.828125 C 119.261719 3.691406 119.382812 3.558594 119.519531 3.527344 L 119.570312 3.523438 Z M 58.347656 3.523438 C 58.484375 3.523438 58.621094 3.613281 58.648438 3.769531 L 58.652344 3.828125 L 58.652344 8.175781 C 58.652344 8.828125 59.070312 9.207031 59.796875 9.207031 C 60.515625 9.207031 60.9375 8.828125 60.9375 8.253906 L 60.9375 3.828125 C 60.9375 3.691406 61.054688 3.558594 61.191406 3.527344 L 61.242188 3.523438 L 62.609375 3.523438 C 62.800781 3.5625 62.914062 3.675781 62.914062 3.828125 L 62.914062 10.617188 C 62.914062 10.753906 62.792969 10.890625 62.660156 10.917969 L 62.609375 10.925781 L 61.847656 10.925781 C 61.734375 10.925781 61.660156 10.886719 61.582031 10.808594 C 61.46875 10.65625 61.390625 10.429688 61.164062 10.429688 C 60.785156 10.429688 60.554688 11.074219 59.339844 11.074219 C 57.703125 11.074219 56.675781 10.046875 56.675781 8.367188 L 56.675781 3.828125 C 56.675781 3.691406 56.796875 3.558594 56.929688 3.527344 L 56.980469 3.523438 Z M 22.886719 4.097656 C 23.496094 4.667969 23.839844 5.46875 23.839844 6.308594 C 23.839844 6.460938 23.761719 6.574219 23.609375 6.613281 L 22.164062 6.613281 C 22.035156 6.613281 21.933594 6.558594 21.882812 6.445312 L 21.859375 6.386719 C 21.898438 5.851562 21.480469 5.355469 20.949219 5.316406 L 20.679688 5.316406 C 20.339844 5.277344 19.957031 5.394531 19.730469 5.660156 C 19.539062 5.925781 19.5 6.308594 19.5 7.222656 C 19.5 8.140625 19.578125 8.558594 19.730469 8.789062 C 19.957031 9.054688 20.339844 9.207031 20.679688 9.132812 C 20.984375 9.171875 21.289062 9.09375 21.519531 8.941406 C 21.707031 8.789062 21.785156 8.597656 21.859375 8.0625 C 21.859375 7.910156 21.976562 7.875 22.164062 7.875 L 23.574219 7.875 C 23.726562 7.875 23.839844 7.988281 23.839844 8.140625 L 23.839844 8.175781 C 23.878906 8.941406 23.609375 9.667969 23.117188 10.199219 C 22.46875 10.808594 21.59375 11.113281 20.679688 11.039062 C 19.691406 11.152344 18.742188 10.695312 18.132812 9.933594 C 17.636719 9.285156 17.445312 8.558594 17.445312 7.261719 C 17.445312 5.964844 17.636719 5.242188 18.132812 4.59375 C 18.742188 3.828125 19.691406 3.410156 20.679688 3.449219 C 21.480469 3.410156 22.242188 3.636719 22.886719 4.097656 Z M 81.800781 0.585938 C 81.949219 0.59375 82.089844 0.707031 82.089844 0.890625 L 82.089844 4.515625 C 82.089844 4.554688 82.128906 4.59375 82.167969 4.59375 C 82.207031 4.59375 82.242188 4.554688 82.28125 4.515625 L 84.867188 0.742188 C 84.90625 0.664062 84.980469 0.585938 85.210938 0.585938 L 86.886719 0.585938 C 87.035156 0.585938 87.1875 0.703125 87.1875 0.894531 L 87.1875 0.929688 C 87.1875 1.007812 87.1875 1.082031 87.113281 1.121094 L 84.070312 5.355469 C 84.03125 5.433594 83.992188 5.507812 83.992188 5.585938 C 83.992188 5.660156 84.03125 5.773438 84.070312 5.851562 L 87.1875 10.351562 C 87.265625 10.429688 87.265625 10.542969 87.265625 10.621094 C 87.265625 10.808594 87.113281 10.964844 86.921875 10.964844 L 85.210938 10.964844 C 85.058594 10.964844 84.90625 10.886719 84.832031 10.734375 L 82.320312 6.765625 C 82.28125 6.691406 82.242188 6.613281 82.167969 6.613281 C 82.105469 6.613281 82.09375 6.640625 82.089844 6.667969 L 82.089844 10.621094 C 82.089844 10.773438 81.9375 10.925781 81.785156 10.925781 L 80.265625 10.925781 C 80.128906 10.925781 79.992188 10.835938 79.964844 10.679688 L 79.960938 10.621094 L 79.960938 0.890625 C 79.960938 0.738281 80.113281 0.585938 80.265625 0.585938 Z M 50.207031 0.394531 C 50.339844 0.394531 50.476562 0.488281 50.503906 0.640625 L 50.511719 0.703125 L 50.511719 3.371094 C 50.472656 3.523438 50.625 3.675781 50.777344 3.714844 L 50.8125 3.714844 C 51.234375 3.523438 51.691406 3.410156 52.144531 3.371094 C 53.820312 3.371094 54.808594 4.402344 54.808594 6.078125 L 54.808594 10.582031 C 54.808594 10.734375 54.65625 10.886719 54.503906 10.886719 L 53.136719 10.886719 C 52.984375 10.886719 52.832031 10.773438 52.832031 10.582031 L 52.832031 6.269531 C 52.832031 5.621094 52.414062 5.242188 51.691406 5.242188 C 50.964844 5.242188 50.546875 5.621094 50.546875 6.195312 L 50.546875 10.621094 C 50.546875 10.753906 50.429688 10.890625 50.292969 10.917969 L 50.242188 10.925781 L 48.875 10.925781 C 48.683594 10.925781 48.53125 10.808594 48.53125 10.621094 L 48.53125 0.703125 C 48.53125 0.566406 48.652344 0.429688 48.785156 0.402344 L 48.835938 0.394531 Z M 27.074219 0.398438 C 27.210938 0.398438 27.34375 0.488281 27.375 0.640625 L 27.378906 0.703125 L 27.378906 3.371094 C 27.339844 3.523438 27.492188 3.675781 27.644531 3.714844 L 27.683594 3.714844 C 28.101562 3.523438 28.558594 3.410156 29.015625 3.371094 C 30.652344 3.371094 31.679688 4.402344 31.679688 6.078125 L 31.679688 10.582031 C 31.679688 10.71875 31.558594 10.851562 31.425781 10.882812 L 31.371094 10.886719 L 30.003906 10.886719 C 29.851562 10.886719 29.699219 10.773438 29.699219 10.582031 L 29.699219 6.269531 C 29.699219 5.621094 29.28125 5.242188 28.558594 5.242188 C 27.835938 5.242188 27.417969 5.621094 27.417969 6.195312 L 27.417969 10.621094 C 27.417969 10.773438 27.265625 10.925781 27.113281 10.925781 L 25.742188 10.925781 C 25.550781 10.925781 25.398438 10.808594 25.398438 10.621094 L 25.398438 0.703125 C 25.398438 0.566406 25.519531 0.429688 25.652344 0.402344 L 25.703125 0.394531 L 27.074219 0.394531 Z M 129.15625 0.398438 C 129.292969 0.398438 129.425781 0.488281 129.457031 0.640625 L 129.460938 0.703125 L 129.460938 3.375 C 129.421875 3.523438 129.574219 3.675781 129.726562 3.714844 L 129.765625 3.714844 C 130.183594 3.523438 130.640625 3.410156 131.097656 3.371094 C 132.734375 3.371094 133.761719 4.402344 133.761719 6.082031 L 133.761719 10.582031 C 133.761719 10.734375 133.609375 10.886719 133.457031 10.886719 L 132.085938 10.886719 C 131.933594 10.886719 131.78125 10.773438 131.78125 10.582031 L 131.78125 6.269531 C 131.78125 5.621094 131.363281 5.242188 130.640625 5.242188 C 129.917969 5.242188 129.5 5.621094 129.5 6.195312 L 129.5 10.621094 C 129.5 10.773438 129.347656 10.925781 129.195312 10.925781 L 127.824219 10.925781 C 127.597656 10.925781 127.484375 10.808594 127.484375 10.621094 L 127.484375 0.703125 C 127.484375 0.566406 127.601562 0.429688 127.738281 0.402344 L 127.785156 0.394531 L 129.15625 0.394531 Z M 114.316406 3.523438 C 114.433594 3.523438 114.585938 3.601562 114.621094 3.714844 C 114.699219 3.980469 114.773438 4.324219 115.042969 4.324219 C 115.5 4.324219 115.726562 3.523438 117.25 3.523438 L 117.78125 3.523438 C 117.914062 3.523438 118.050781 3.613281 118.078125 3.769531 L 118.085938 3.828125 L 118.085938 5.242188 C 118.085938 5.375 117.964844 5.511719 117.832031 5.542969 L 117.78125 5.546875 L 117.25 5.546875 C 116.105469 5.546875 115.269531 6.082031 115.269531 7.1875 L 115.269531 10.621094 C 115.269531 10.773438 115.117188 10.925781 114.964844 10.925781 L 113.59375 10.925781 C 113.40625 10.925781 113.253906 10.808594 113.253906 10.621094 L 113.253906 3.828125 C 113.253906 3.695312 113.371094 3.558594 113.507812 3.53125 L 113.558594 3.523438 Z M 2.644531 0.585938 C 2.796875 0.585938 2.949219 0.703125 2.949219 0.894531 L 2.949219 4.59375 C 2.949219 4.65625 3.003906 4.71875 3.066406 4.738281 L 3.101562 4.746094 L 5.386719 4.746094 C 5.445312 4.746094 5.507812 4.722656 5.53125 4.671875 L 5.539062 4.628906 L 5.539062 0.890625 C 5.539062 0.738281 5.691406 0.585938 5.84375 0.585938 L 7.363281 0.585938 C 7.5 0.585938 7.636719 0.675781 7.664062 0.832031 L 7.667969 0.890625 L 7.667969 10.621094 C 7.667969 10.753906 7.550781 10.890625 7.414062 10.917969 L 7.363281 10.925781 L 5.84375 10.925781 C 5.691406 10.925781 5.539062 10.808594 5.539062 10.621094 L 5.539062 6.917969 C 5.539062 6.855469 5.484375 6.792969 5.425781 6.773438 L 5.386719 6.765625 L 3.101562 6.765625 C 3.042969 6.765625 2.980469 6.789062 2.960938 6.839844 L 2.949219 6.882812 L 2.949219 10.582031 C 2.949219 10.734375 2.722656 10.886719 2.570312 10.886719 L 1.125 10.886719 C 0.933594 10.925781 0.820312 10.808594 0.820312 10.621094 L 0.820312 0.890625 C 0.820312 0.757812 0.941406 0.621094 1.074219 0.59375 L 1.125 0.585938 L 2.648438 0.585938 Z M 66.566406 0.398438 C 66.703125 0.398438 66.839844 0.488281 66.867188 0.640625 L 66.871094 0.703125 L 66.871094 10.621094 C 66.871094 10.773438 66.71875 10.925781 66.566406 10.925781 L 65.199219 10.925781 C 65.007812 10.925781 64.894531 10.808594 64.894531 10.621094 L 64.894531 0.703125 C 64.894531 0.566406 65.011719 0.429688 65.148438 0.402344 L 65.199219 0.394531 L 66.566406 0.394531 Z M 97.042969 3.523438 C 97.15625 3.523438 97.308594 3.601562 97.347656 3.714844 C 97.425781 3.984375 97.5 4.324219 97.765625 4.324219 C 98.222656 4.324219 98.453125 3.523438 99.972656 3.523438 L 100.507812 3.523438 C 100.660156 3.523438 100.808594 3.640625 100.808594 3.832031 L 100.808594 5.242188 C 100.808594 5.375 100.691406 5.511719 100.558594 5.542969 L 100.507812 5.546875 L 99.972656 5.546875 C 98.832031 5.546875 97.996094 6.082031 97.996094 7.1875 L 97.996094 10.621094 C 97.996094 10.773438 97.84375 10.925781 97.691406 10.925781 L 96.320312 10.925781 C 96.128906 10.925781 95.976562 10.808594 95.976562 10.621094 L 95.976562 3.828125 C 95.976562 3.695312 96.097656 3.558594 96.230469 3.53125 L 96.285156 3.523438 Z M 103.703125 0.398438 C 103.835938 0.398438 103.972656 0.488281 104 0.640625 L 104.007812 0.703125 L 104.007812 10.621094 C 104.007812 10.773438 103.855469 10.925781 103.703125 10.925781 L 102.332031 10.925781 C 102.179688 10.925781 102.027344 10.808594 102.027344 10.621094 L 102.027344 0.703125 C 102.027344 0.566406 102.148438 0.429688 102.28125 0.402344 L 102.332031 0.394531 L 103.703125 0.394531 Z M 92.058594 7.910156 L 90.613281 7.910156 C 89.96875 7.910156 89.699219 8.253906 89.699219 8.636719 C 89.699219 9.171875 90.15625 9.398438 90.726562 9.398438 C 91.527344 9.4375 92.175781 9.171875 92.175781 8.40625 L 92.175781 8.0625 C 92.175781 7.988281 92.136719 7.910156 92.058594 7.910156 Z M 12.804688 5.355469 C 12.460938 5.316406 12.082031 5.429688 11.851562 5.699219 C 11.664062 5.964844 11.625 6.347656 11.625 7.261719 C 11.625 8.175781 11.703125 8.597656 11.855469 8.828125 C 12.082031 9.09375 12.460938 9.246094 12.804688 9.171875 C 13.148438 9.207031 13.488281 9.09375 13.757812 8.824219 C 13.945312 8.558594 13.984375 8.175781 13.984375 7.261719 C 13.984375 6.347656 13.90625 5.925781 13.757812 5.699219 C 13.527344 5.429688 13.148438 5.277344 12.804688 5.355469 Z M 137.300781 6.042969 L 137.300781 6.195312 C 137.300781 6.269531 137.375 6.347656 137.449219 6.347656 L 139.773438 6.347656 C 139.847656 6.347656 139.925781 6.308594 139.925781 6.195312 C 139.925781 5.507812 139.351562 4.9375 138.667969 4.9375 L 138.628906 4.9375 C 137.945312 4.859375 137.375 5.355469 137.300781 6.042969 Z M 70.488281 6.042969 L 70.488281 6.195312 C 70.488281 6.269531 70.5625 6.347656 70.636719 6.347656 L 72.960938 6.347656 C 73.035156 6.347656 73.109375 6.308594 73.109375 6.195312 C 73.109375 5.507812 72.539062 4.9375 71.855469 4.9375 L 71.816406 4.9375 C 71.132812 4.859375 70.5625 5.355469 70.484375 6.042969 Z M 70.488281 6.042969 "/>
</g>
</svg>
